<?xml version="1.0" encoding="UTF-8" standalone="no"?>
<svg
   xmlns:dc="http://purl.org/dc/elements/1.1/"
   xmlns:cc="http://creativecommons.org/ns#"
   xmlns:rdf="http://www.w3.org/1999/02/22-rdf-syntax-ns#"
   xmlns:svg="http://www.w3.org/2000/svg"
   xmlns="http://www.w3.org/2000/svg"
   xmlns:sodipodi="http://sodipodi.sourceforge.net/DTD/sodipodi-0.dtd"
   xmlns:inkscape="http://www.inkscape.org/namespaces/inkscape"
   inkscape:version="1.0 (4035a4fb49, 2020-05-01)"
   sodipodi:docname="Logo with text horizontal.svg"
   id="svg915"
   version="1.1"
   viewBox="0 0 285.75 285.75"
   height="1080"
   width="1080"
   inkscape:export-filename="/home/baachu/Projects/Dev hash/Logo/Developers Hash Logo/Logo/Transparent Logo.png"
   inkscape:export-xdpi="196.608"
   inkscape:export-ydpi="196.608">
  <defs
     id="defs909">
    <rect
       x="-2111.3164"
       y="11252.386"
       width="78.833685"
       height="12.531965"
       id="rect932" />
    <rect
       x="-2111.3164"
       y="11252.386"
       width="588.50403"
       height="106.78493"
       id="rect1598" />
  </defs>
  <sodipodi:namedview
     inkscape:window-maximized="1"
     inkscape:window-y="27"
     inkscape:window-x="0"
     inkscape:window-height="836"
     inkscape:window-width="1440"
     units="px"
     showgrid="false"
     inkscape:document-rotation="0"
     inkscape:current-layer="layer1"
     inkscape:document-units="mm"
     inkscape:cy="1099.3549"
     inkscape:cx="406.08046"
     inkscape:zoom="0.175"
     inkscape:pageshadow="2"
     inkscape:pageopacity="0.0"
     borderopacity="1.0"
     bordercolor="#666666"
     pagecolor="#ffffff"
     id="base"
     inkscape:snap-bbox="true"
     inkscape:bbox-paths="true"
     inkscape:bbox-nodes="true"
     inkscape:snap-bbox-edge-midpoints="true"
     inkscape:snap-bbox-midpoints="true"
     showguides="true"
     inkscape:guide-bbox="true" />
  <metadata
     id="metadata912">
    <rdf:RDF>
      <cc:Work
         rdf:about="">
        <dc:format>image/svg+xml</dc:format>
        <dc:type
           rdf:resource="http://purl.org/dc/dcmitype/StillImage" />
        <dc:title />
      </cc:Work>
    </rdf:RDF>
  </metadata>
  <g
     id="layer1"
     inkscape:groupmode="layer"
     inkscape:label="Layer 1">
    <g
       transform="translate(0,4.8499947e-5)"
       id="g1084" />
    <g
       transform="translate(15.055562)"
       id="g106">
      <g
         id="g1635"
         transform="matrix(0.27466191,0,0,0.27466112,-13.596589,91.718683)">
        <g
           id="g38">
          <path
             id="circle2319"
             style="display:inline;opacity:1;fill:#00599d;fill-opacity:1;stroke:#00599d;stroke-width:0.264999;stroke-linecap:round;stroke-miterlimit:4;stroke-dasharray:none;stroke-opacity:1"
             d="m 181.38283,96.178546 a 89.785592,89.785592 0 0 0 -23.304,3.08973 l -3.84266,32.481234 a 21.222886,21.222886 0 0 1 13.35215,14.981 h 44.15545 a 13.059163,13.059164 0 0 1 8.45013,-7.59127 l 3.81217,-32.22336 a 89.785592,89.785592 0 0 0 -42.57725,-10.737334 89.785592,89.785592 0 0 0 -0.046,0 z m -33.63257,6.555674 a 89.785592,89.785592 0 0 0 -47.01677,43.86398 h 25.61394 a 21.222886,21.222886 0 0 1 18.10484,-15.99074 z m 85.4971,9.9074 -3.25665,27.52804 a 13.059163,13.059164 0 0 1 5.86476,6.42854 h 26.26817 a 89.785592,89.785592 0 0 0 -28.87628,-33.95658 z m -136.632998,43.8609 a 89.785592,89.785592 0 0 0 -4.97127,29.46175 89.785592,89.785592 0 0 0 4.92528,29.32896 h 30.136138 a 13.059162,13.059163 0 0 1 8.63358,-7.64344 l 4.26538,-36.05673 a 21.222886,21.222886 0 0 1 -13.32012,-15.09054 z m 139.349628,0 a 13.059163,13.059164 0 0 1 -8.84803,7.81812 l -4.26021,36.01228 a 21.222886,21.222886 0 0 1 13.29531,14.96031 h 30.1377 a 89.785592,89.785592 0 0 0 4.92528,-29.32896 89.785592,89.785592 0 0 0 -4.97127,-29.46175 z m -68.37567,0.13229 a 21.222886,21.222886 0 0 1 -18.20509,16.1308 l -4.26589,36.05723 a 13.059162,13.059163 0 0 1 5.75417,6.47039 h 44.0061 a 21.222886,21.222886 0 0 1 18.19786,-16.12974 l 4.27571,-36.14095 a 13.059163,13.059164 0 0 1 -5.60793,-6.38772 z m -66.91994,68.56273 a 89.785592,89.785592 0 0 0 28.56414,33.82171 l 3.23547,-27.34614 a 13.059162,13.059163 0 0 1 -5.76348,-6.47557 z m 50.20313,0 a 13.059162,13.059163 0 0 1 -8.62324,7.63984 l -3.78168,31.96653 a 89.785592,89.785592 0 0 0 42.96223,10.94611 89.785592,89.785592 0 0 0 22.93814,-2.98019 l 3.85609,-32.59386 a 21.222886,21.222886 0 0 1 -13.34544,-14.97843 z m 85.27955,0 a 21.222886,21.222886 0 0 1 -18.14463,16.12357 l -3.31762,28.04118 a 89.785592,89.785592 0 0 0 47.50046,-44.16475 z" />
          <g
             id="g1627">
            <circle
               r="14.9485"
               cy="151.6629"
               cx="146.88127"
               id="circle53"
               style="display:inline;fill:#ffd142;fill-opacity:1;stroke:none;stroke-width:0.186361;stroke-linecap:round;stroke-miterlimit:4;stroke-dasharray:none;stroke-opacity:1" />
            <ellipse
               ry="9.2340508"
               rx="9.2340498"
               cy="220.35779"
               cx="138.56857"
               id="ellipse1009"
               style="display:inline;fill:#ffd142;fill-opacity:1;stroke:none;stroke-width:0.187085;stroke-linecap:round;stroke-miterlimit:4;stroke-dasharray:none;stroke-opacity:1" />
            <circle
               style="display:inline;fill:#ffd142;fill-opacity:1;stroke:none;stroke-width:0.186361;stroke-linecap:round;stroke-miterlimit:4;stroke-dasharray:none;stroke-opacity:1"
               id="circle1011"
               cx="215.44383"
               cy="220.22546"
               r="14.9485" />
            <ellipse
               style="display:inline;fill:#ffd142;fill-opacity:1;stroke:none;stroke-width:0.187085;stroke-linecap:round;stroke-miterlimit:4;stroke-dasharray:none;stroke-opacity:1"
               id="ellipse1013"
               cx="223.60754"
               cy="151.6629"
               rx="9.2340498"
               ry="9.2340508" />
          </g>
        </g>
      </g>
      <g
         aria-label="Developers Hash"
         transform="matrix(2.3077537,0,0,2.3077537,4939.1832,-25839.09)"
         id="text930"
         style="font-style:normal;font-variant:normal;font-weight:bold;font-stretch:normal;font-size:10.5833px;line-height:1.25;font-family:'Sulphur Point';-inkscape-font-specification:'Sulphur Point Bold';letter-spacing:-0.0354868px;white-space:pre;shape-inside:url(#rect932);display:inline;fill:#00599d;fill-opacity:1;stroke:none;stroke-width:0.173528;stroke-miterlimit:4;stroke-dasharray:none;stroke-opacity:1">
        <path
           d="m -2110.7872,11262.07 v -7.048 h 1.8203 q 0.7091,0 1.3441,0.275 0.635,0.265 1.1218,0.752 0.4762,0.497 0.7408,1.143 0.2752,0.635 0.2752,1.354 0,0.72 -0.2752,1.365 -0.2646,0.635 -0.7408,1.122 -0.4868,0.498 -1.1218,0.773 -0.635,0.264 -1.3441,0.264 z m 0.9525,-6.096 v 5.144 h 0.8678 q 0.508,0 0.9736,-0.201 0.4763,-0.201 0.8255,-0.55 0.3493,-0.36 0.5398,-0.826 0.2011,-0.476 0.2011,-0.995 0,-0.518 -0.2011,-0.984 -0.1905,-0.476 -0.5398,-0.836 -0.3492,-0.349 -0.8255,-0.55 -0.4656,-0.202 -0.9736,-0.202 z"
           style="shape-inside:url(#rect932);display:inline"
           id="path54" />
        <path
           d="m -2103.8695,11259.827 q 0,0.254 0.1799,0.529 0.1905,0.275 0.4339,0.466 0.4445,0.349 1.0372,0.349 0.9419,0 1.5346,-0.91 l 0.8043,0.476 q -0.4128,0.667 -1.016,1.027 -0.6033,0.359 -1.3229,0.359 -0.5398,0 -1.0266,-0.201 -0.4868,-0.211 -0.8572,-0.582 -0.3705,-0.37 -0.5821,-0.857 -0.2011,-0.487 -0.2011,-1.027 0,-0.539 0.2011,-1.026 0.2116,-0.498 0.5821,-0.868 0.3598,-0.37 0.8466,-0.572 0.4974,-0.201 1.0372,-0.201 0.5397,0 1.0266,0.201 0.4974,0.202 0.8572,0.572 0.7832,0.804 0.7832,1.863 0,0.19 -0.032,0.402 z m 1.651,-2.17 q -0.4339,0 -0.8149,0.191 -0.381,0.19 -0.6139,0.508 -0.2222,0.307 -0.2222,0.656 h 3.302 q 0,-0.349 -0.2329,-0.656 -0.2222,-0.318 -0.6032,-0.508 -0.381,-0.191 -0.8149,-0.191 z"
           style="shape-inside:url(#rect932);display:inline"
           id="path56" />
        <path
           d="m -2096.285,11262.07 h -0.8996 l -2.0849,-5.291 h 1.0054 l 1.5346,3.863 1.524,-3.863 h 1.0054 z"
           style="shape-inside:url(#rect932);display:inline"
           id="path58" />
        <path
           d="m -2093.008,11259.827 q 0,0.254 0.1799,0.529 0.1905,0.275 0.4339,0.466 0.4445,0.349 1.0372,0.349 0.9419,0 1.5346,-0.91 l 0.8043,0.476 q -0.4127,0.667 -1.016,1.027 -0.6032,0.359 -1.3229,0.359 -0.5397,0 -1.0266,-0.201 -0.4868,-0.211 -0.8572,-0.582 -0.3704,-0.37 -0.5821,-0.857 -0.2011,-0.487 -0.2011,-1.027 0,-0.539 0.2011,-1.026 0.2117,-0.498 0.5821,-0.868 0.3598,-0.37 0.8466,-0.572 0.4975,-0.201 1.0372,-0.201 0.5398,0 1.0266,0.201 0.4974,0.202 0.8572,0.572 0.7832,0.804 0.7832,1.863 0,0.19 -0.032,0.402 z m 1.651,-2.17 q -0.4339,0 -0.8149,0.191 -0.381,0.19 -0.6138,0.508 -0.2223,0.307 -0.2223,0.656 h 3.302 q 0,-0.349 -0.2328,-0.656 -0.2223,-0.318 -0.6033,-0.508 -0.381,-0.191 -0.8149,-0.191 z"
           style="shape-inside:url(#rect932);display:inline"
           id="path60" />
        <path
           d="m -2087.773,11262.07 v -7.037 h 0.8467 v 7.037 z"
           style="shape-inside:url(#rect932);display:inline"
           id="path62" />
        <path
           d="m -2083.3318,11262.123 q -0.5397,0 -1.0265,-0.211 -0.4869,-0.212 -0.8573,-0.582 -0.3704,-0.371 -0.5821,-0.858 -0.2116,-0.486 -0.2116,-1.026 0,-0.551 0.2116,-1.048 0.2117,-0.497 0.5821,-0.868 0.3704,-0.37 0.8573,-0.571 0.4868,-0.212 1.0265,-0.212 0.5504,0 1.0478,0.212 0.4974,0.201 0.8678,0.571 0.3704,0.371 0.5715,0.868 0.2117,0.497 0.2117,1.048 0,0.54 -0.2117,1.026 -0.2011,0.487 -0.5715,0.858 -0.3704,0.37 -0.8678,0.582 -0.4974,0.211 -1.0478,0.211 z m 0,-4.434 q -0.709,0 -1.217,0.508 -0.2435,0.243 -0.381,0.571 -0.1376,0.329 -0.1376,0.678 0,0.349 0.1376,0.667 0.1375,0.317 0.381,0.56 0.2434,0.244 0.5503,0.381 0.3175,0.138 0.6667,0.138 0.3493,0 0.6774,-0.138 0.3281,-0.137 0.5609,-0.381 0.2328,-0.243 0.3704,-0.56 0.1376,-0.318 0.1376,-0.667 0,-0.349 -0.1376,-0.678 -0.1376,-0.328 -0.3704,-0.571 -0.2328,-0.243 -0.5609,-0.37 -0.3175,-0.138 -0.6774,-0.138 z"
           style="shape-inside:url(#rect932);display:inline"
           id="path64" />
        <path
           d="m -2077.0384,11262.166 q -0.6033,0 -1.0055,-0.191 -0.4021,-0.201 -0.7302,-0.624 v 2.974 h -0.9419 v -7.419 h 0.9419 v 0.741 q 0.3281,-0.403 0.7832,-0.646 0.455,-0.243 0.9525,-0.243 0.5397,0 1.0265,0.211 0.4975,0.201 0.8573,0.582 0.3704,0.381 0.5715,0.879 0.2117,0.487 0.2117,1.037 0,0.55 -0.2117,1.037 -0.2011,0.487 -0.5715,0.868 -0.3598,0.37 -0.8573,0.582 -0.4868,0.212 -1.0265,0.212 z m 0,-4.445 q -0.3493,0 -0.6668,0.137 -0.3175,0.127 -0.5503,0.371 -0.2329,0.243 -0.3704,0.571 -0.1376,0.318 -0.1376,0.667 0,0.349 0.1376,0.667 0.1375,0.317 0.3704,0.561 0.2328,0.243 0.5503,0.381 0.3175,0.137 0.6668,0.137 0.3492,0 0.6667,-0.137 0.3175,-0.138 0.5503,-0.381 0.2329,-0.244 0.3599,-0.561 0.1376,-0.318 0.1376,-0.667 0,-0.349 -0.1376,-0.667 -0.127,-0.328 -0.3599,-0.571 -0.2328,-0.244 -0.5503,-0.371 -0.3175,-0.137 -0.6667,-0.137 z"
           style="shape-inside:url(#rect932);display:inline"
           id="path66" />
        <path
           d="m -2072.5443,11259.827 q 0,0.254 0.1799,0.529 0.1905,0.275 0.4339,0.466 0.4445,0.349 1.0372,0.349 0.9419,0 1.5346,-0.91 l 0.8043,0.476 q -0.4127,0.667 -1.016,1.027 -0.6032,0.359 -1.3229,0.359 -0.5397,0 -1.0266,-0.201 -0.4868,-0.211 -0.8572,-0.582 -0.3704,-0.37 -0.5821,-0.857 -0.2011,-0.487 -0.2011,-1.027 0,-0.539 0.2011,-1.026 0.2117,-0.498 0.5821,-0.868 0.3598,-0.37 0.8466,-0.572 0.4975,-0.201 1.0372,-0.201 0.5398,0 1.0266,0.201 0.4974,0.202 0.8572,0.572 0.7832,0.804 0.7832,1.863 0,0.19 -0.032,0.402 z m 1.651,-2.17 q -0.4339,0 -0.8149,0.191 -0.381,0.19 -0.6138,0.508 -0.2223,0.307 -0.2223,0.656 h 3.302 q 0,-0.349 -0.2328,-0.656 -0.2223,-0.318 -0.6033,-0.508 -0.381,-0.191 -0.8149,-0.191 z"
           style="shape-inside:url(#rect932);display:inline"
           id="path68" />
        <path
           d="m -2064.9492,11257.795 q -0.254,-0.117 -0.4551,-0.117 -0.4233,0 -0.6985,0.297 -0.2963,0.317 -0.2963,0.73 v 3.365 h -0.9102 v -3.365 q 0,-0.572 0.2858,-1.048 0.2963,-0.476 0.8043,-0.741 0.381,-0.18 0.8149,-0.18 0.3493,0 0.6668,0.127 0.3175,0.127 0.6667,0.413 z"
           style="shape-inside:url(#rect932);display:inline"
           id="path70" />
        <path
           d="m -2061.016,11258.356 q -0.032,-0.191 -0.1376,-0.36 -0.201,-0.349 -0.7937,-0.349 -0.3175,0 -0.4868,0.07 -0.2223,0.08 -0.3387,0.243 -0.1058,0.159 -0.1058,0.349 0,0.233 0.1693,0.424 0.1799,0.201 0.5821,0.211 0.7091,0.03 1.143,0.17 0.4445,0.137 0.6773,0.476 0.2434,0.339 0.2434,0.952 0,0.625 -0.4762,1.08 -0.2329,0.222 -0.5504,0.36 -0.3069,0.137 -0.6455,0.137 h -0.1588 q -0.8467,0 -1.3652,-0.486 -0.4234,-0.392 -0.5292,-1.101 h 0.9419 q 0.053,0.254 0.2117,0.413 0.2434,0.232 0.6773,0.232 0.1164,0 0.1693,-0.01 0.3705,-0.02 0.5821,-0.201 0.2117,-0.191 0.2117,-0.466 0,-0.381 -0.2328,-0.497 -0.2329,-0.117 -0.8996,-0.117 -0.8361,0 -1.2806,-0.529 -0.3598,-0.402 -0.3598,-1.016 0,-0.137 0.011,-0.212 0.085,-0.687 0.5609,-1.047 0.4868,-0.371 1.2805,-0.371 0.5821,0 1.016,0.254 0.307,0.191 0.5292,0.529 0.2117,0.339 0.2752,0.847 l -0.021,0.01 z"
           style="shape-inside:url(#rect932);display:inline"
           id="path72" />
        <path
           d="m -2051.2131,11262.052 v -3.037 h -2.8575 v 3.037 h -0.9313 v -7.037 h 0.9313 v 3.048 h 2.8575 v -3.048 h 0.9208 v 7.037 z"
           style="fill:#ffd142;fill-opacity:1"
           id="path74" />
        <path
           d="m -2044.9833,11262.052 v -0.804 q -0.3386,0.392 -0.7831,0.625 -0.4445,0.232 -0.9419,0.232 -0.5504,0 -1.0372,-0.201 -0.4763,-0.201 -0.8467,-0.571 -0.3704,-0.36 -0.5821,-0.847 -0.201,-0.497 -0.201,-1.037 0,-0.54 0.201,-1.027 0.2117,-0.497 0.5821,-0.867 0.3704,-0.371 0.8467,-0.572 0.4868,-0.201 1.0372,-0.201 0.508,0 0.9525,0.212 0.455,0.211 0.7725,0.592 v -0.698 h 0.9525 v 5.164 z m -1.725,-4.328 q -0.3493,0 -0.6774,0.137 -0.3175,0.127 -0.5503,0.36 -0.2328,0.233 -0.3704,0.561 -0.127,0.318 -0.127,0.667 0,0.349 0.127,0.667 0.1376,0.317 0.3704,0.55 0.2328,0.233 0.5503,0.37 0.3281,0.127 0.6774,0.127 0.3492,0 0.6667,-0.127 0.3175,-0.137 0.5503,-0.37 0.2329,-0.233 0.3599,-0.55 0.1376,-0.318 0.1376,-0.667 0,-0.349 -0.1376,-0.667 -0.127,-0.328 -0.3599,-0.561 -0.2328,-0.233 -0.5503,-0.36 -0.3175,-0.137 -0.6667,-0.137 z"
           style="fill:#ffd142;fill-opacity:1"
           id="path76" />
        <path
           d="m -2040.5526,11258.338 q -0.032,-0.191 -0.1376,-0.36 -0.2011,-0.349 -0.7937,-0.349 -0.3175,0 -0.4869,0.07 -0.2222,0.08 -0.3386,0.243 -0.1059,0.159 -0.1059,0.349 0,0.233 0.1694,0.424 0.1799,0.201 0.582,0.211 0.7091,0.03 1.143,0.17 0.4445,0.137 0.6774,0.476 0.2434,0.339 0.2434,0.952 0,0.625 -0.4763,1.08 -0.2328,0.222 -0.5503,0.36 -0.3069,0.137 -0.6456,0.137 h -0.1587 q -0.8467,0 -1.3653,-0.486 -0.4233,-0.392 -0.5291,-1.101 h 0.9419 q 0.053,0.254 0.2116,0.413 0.2435,0.232 0.6774,0.232 0.1164,0 0.1693,-0.01 0.3704,-0.02 0.5821,-0.201 0.2117,-0.191 0.2117,-0.466 0,-0.381 -0.2329,-0.497 -0.2328,-0.117 -0.8996,-0.117 -0.836,0 -1.2805,-0.529 -0.3599,-0.402 -0.3599,-1.016 0,-0.137 0.011,-0.212 0.085,-0.687 0.5609,-1.047 0.4869,-0.371 1.2806,-0.371 0.5821,0 1.016,0.254 0.3069,0.191 0.5292,0.529 0.2116,0.339 0.2751,0.847 l -0.021,0.01 z"
           style="fill:#ffd142;fill-opacity:1"
           id="path78" />
        <path
           d="m -2035.4129,11262.052 v -3.249 q 0,-0.497 -0.3492,-0.846 -0.1588,-0.159 -0.381,-0.254 -0.2117,-0.1 -0.4339,-0.1 -0.4763,0 -0.8255,0.35 -0.3493,0.349 -0.3493,0.846 v 3.249 h -0.9313 v -7.059 h 0.9313 v 2.138 q 0.508,-0.476 1.1748,-0.476 0.4233,0 0.8043,0.169 0.381,0.159 0.6773,0.455 0.2858,0.297 0.4445,0.699 0.1694,0.391 0.1694,0.825 v 3.249 z"
           style="fill:#ffd142;fill-opacity:1"
           id="path80" />
      </g>
    </g>
  </g>
</svg>
