<?xml version="1.0" encoding="UTF-8" standalone="no"?>
<svg
   xmlns:dc="http://purl.org/dc/elements/1.1/"
   xmlns:cc="http://creativecommons.org/ns#"
   xmlns:rdf="http://www.w3.org/1999/02/22-rdf-syntax-ns#"
   xmlns:svg="http://www.w3.org/2000/svg"
   xmlns="http://www.w3.org/2000/svg"
   xmlns:sodipodi="http://sodipodi.sourceforge.net/DTD/sodipodi-0.dtd"
   xmlns:inkscape="http://www.inkscape.org/namespaces/inkscape"
   inkscape:version="1.0 (4035a4fb49, 2020-05-01)"
   sodipodi:docname="Vector Logo.svg"
   id="svg915"
   version="1.1"
   viewBox="0 0 285.75 285.75"
   height="1080"
   width="1080"
   inkscape:export-filename="/home/baachu/Projects/Dev hash/Logo/Developers Hash Logo/Logo/Transparent Logo.png"
   inkscape:export-xdpi="196.608"
   inkscape:export-ydpi="196.608">
  <defs
     id="defs909" />
  <sodipodi:namedview
     inkscape:window-maximized="1"
     inkscape:window-y="27"
     inkscape:window-x="0"
     inkscape:window-height="836"
     inkscape:window-width="1440"
     units="px"
     showgrid="false"
     inkscape:document-rotation="0"
     inkscape:current-layer="layer1"
     inkscape:document-units="mm"
     inkscape:cy="653.14094"
     inkscape:cx="-219.42344"
     inkscape:zoom="0.17500001"
     inkscape:pageshadow="2"
     inkscape:pageopacity="0.0"
     borderopacity="1.0"
     bordercolor="#666666"
     pagecolor="#ffffff"
     id="base"
     inkscape:snap-bbox="true"
     inkscape:bbox-paths="true"
     inkscape:bbox-nodes="true"
     inkscape:snap-bbox-edge-midpoints="true"
     inkscape:snap-bbox-midpoints="true" />
  <metadata
     id="metadata912">
    <rdf:RDF>
      <cc:Work
         rdf:about="">
        <dc:format>image/svg+xml</dc:format>
        <dc:type
           rdf:resource="http://purl.org/dc/dcmitype/StillImage" />
        <dc:title />
      </cc:Work>
    </rdf:RDF>
  </metadata>
  <g
     id="layer1"
     inkscape:groupmode="layer"
     inkscape:label="Layer 1">
    <g
       transform="translate(0,4.8499947e-5)"
       id="g1084" />
    <g
       id="g110"
       transform="matrix(1.0592988,0,0,1.0592957,-49.312062,-54.116165)"
       inkscape:export-xdpi="96"
       inkscape:export-ydpi="96">
      <path
         id="circle2319"
         style="display:inline;opacity:1;fill:#00599d;fill-opacity:1;stroke:#00599d;stroke-width:0.264999;stroke-linecap:round;stroke-miterlimit:4;stroke-dasharray:none;stroke-opacity:1"
         d="m 181.38283,96.178546 a 89.785592,89.785592 0 0 0 -23.304,3.08973 l -3.84266,32.481234 a 21.222886,21.222886 0 0 1 13.35215,14.981 h 44.15545 a 13.059163,13.059164 0 0 1 8.45013,-7.59127 l 3.81217,-32.22336 a 89.785592,89.785592 0 0 0 -42.57725,-10.737334 89.785592,89.785592 0 0 0 -0.046,0 z m -33.63257,6.555674 a 89.785592,89.785592 0 0 0 -47.01677,43.86398 h 25.61394 a 21.222886,21.222886 0 0 1 18.10484,-15.99074 z m 85.4971,9.9074 -3.25665,27.52804 a 13.059163,13.059164 0 0 1 5.86476,6.42854 h 26.26817 a 89.785592,89.785592 0 0 0 -28.87628,-33.95658 z m -136.632998,43.8609 a 89.785592,89.785592 0 0 0 -4.97127,29.46175 89.785592,89.785592 0 0 0 4.92528,29.32896 h 30.136138 a 13.059162,13.059163 0 0 1 8.63358,-7.64344 l 4.26538,-36.05673 a 21.222886,21.222886 0 0 1 -13.32012,-15.09054 z m 139.349628,0 a 13.059163,13.059164 0 0 1 -8.84803,7.81812 l -4.26021,36.01228 a 21.222886,21.222886 0 0 1 13.29531,14.96031 h 30.1377 a 89.785592,89.785592 0 0 0 4.92528,-29.32896 89.785592,89.785592 0 0 0 -4.97127,-29.46175 z m -68.37567,0.13229 a 21.222886,21.222886 0 0 1 -18.20509,16.1308 l -4.26589,36.05723 a 13.059162,13.059163 0 0 1 5.75417,6.47039 h 44.0061 a 21.222886,21.222886 0 0 1 18.19786,-16.12974 l 4.27571,-36.14095 a 13.059163,13.059164 0 0 1 -5.60793,-6.38772 z m -66.91994,68.56273 a 89.785592,89.785592 0 0 0 28.56414,33.82171 l 3.23547,-27.34614 a 13.059162,13.059163 0 0 1 -5.76348,-6.47557 z m 50.20313,0 a 13.059162,13.059163 0 0 1 -8.62324,7.63984 l -3.78168,31.96653 a 89.785592,89.785592 0 0 0 42.96223,10.94611 89.785592,89.785592 0 0 0 22.93814,-2.98019 l 3.85609,-32.59386 a 21.222886,21.222886 0 0 1 -13.34544,-14.97843 z m 85.27955,0 a 21.222886,21.222886 0 0 1 -18.14463,16.12357 l -3.31762,28.04118 a 89.785592,89.785592 0 0 0 47.50046,-44.16475 z" />
      <circle
         style="display:inline;fill:#ffd142;fill-opacity:1;stroke:none;stroke-width:0.186361;stroke-linecap:round;stroke-miterlimit:4;stroke-dasharray:none;stroke-opacity:1"
         id="circle53"
         cx="146.88127"
         cy="151.6629"
         r="14.9485" />
      <ellipse
         style="display:inline;fill:#ffd142;fill-opacity:1;stroke:none;stroke-width:0.187085;stroke-linecap:round;stroke-miterlimit:4;stroke-dasharray:none;stroke-opacity:1"
         id="ellipse1009"
         cx="138.56857"
         cy="220.35779"
         rx="9.2340498"
         ry="9.2340508" />
      <circle
         r="14.9485"
         cy="220.22546"
         cx="215.44383"
         id="circle1011"
         style="display:inline;fill:#ffd142;fill-opacity:1;stroke:none;stroke-width:0.186361;stroke-linecap:round;stroke-miterlimit:4;stroke-dasharray:none;stroke-opacity:1" />
      <ellipse
         ry="9.2340508"
         rx="9.2340498"
         cy="151.6629"
         cx="223.60754"
         id="ellipse1013"
         style="display:inline;fill:#ffd142;fill-opacity:1;stroke:none;stroke-width:0.187085;stroke-linecap:round;stroke-miterlimit:4;stroke-dasharray:none;stroke-opacity:1" />
    </g>
  </g>
</svg>
