<?xml version="1.0" standalone="no"?><svg xmlns="http://www.w3.org/2000/svg" viewBox="0 0 1440 320"><path fill="#0099ff" fill-opacity="1" d="M0,160L20,160C40,160,80,160,120,144C160,128,200,96,240,101.3C280,107,320,149,360,138.7C400,128,440,64,480,53.3C520,43,560,85,600,101.3C640,117,680,107,720,90.7C760,75,800,53,840,64C880,75,920,117,960,138.7C1000,160,1040,160,1080,144C1120,128,1160,96,1200,90.7C1240,85,1280,107,1320,133.3C1360,160,1400,192,1420,208L1440,224L1440,320L1420,320C1400,320,1360,320,1320,320C1280,320,1240,320,1200,320C1160,320,1120,320,1080,320C1040,320,1000,320,960,320C920,320,880,320,840,320C800,320,760,320,720,320C680,320,640,320,600,320C560,320,520,320,480,320C440,320,400,320,360,320C320,320,280,320,240,320C200,320,160,320,120,320C80,320,40,320,20,320L0,320Z"></path></svg>